<?xml version="1.0" encoding="UTF-8" standalone="no"?>
<svg
   xmlns:dc="http://purl.org/dc/elements/1.1/"
   xmlns:cc="http://creativecommons.org/ns#"
   xmlns:rdf="http://www.w3.org/1999/02/22-rdf-syntax-ns#"
   xmlns:svg="http://www.w3.org/2000/svg"
   xmlns="http://www.w3.org/2000/svg"
   xmlns:sodipodi="http://sodipodi.sourceforge.net/DTD/sodipodi-0.dtd"
   xmlns:inkscape="http://www.inkscape.org/namespaces/inkscape"
   inkscape:version="1.0 (4035a4fb49, 2020-05-01)"
   sodipodi:docname="keys.svg"
   id="svg64"
   preserveAspectRatio="xMidYMid meet"
   viewBox="0 0 1113.000000 1280.000000"
   height="1280.000000pt"
   width="1113.000000pt"
   version="1.0">
  <defs
     id="defs68" />
  <sodipodi:namedview
     inkscape:current-layer="svg64"
     inkscape:window-maximized="1"
     inkscape:window-y="0"
     inkscape:window-x="0"
     inkscape:cy="849.96713"
     inkscape:cx="740.52587"
     inkscape:zoom="0.29707031"
     showgrid="false"
     id="namedview66"
     inkscape:window-height="704"
     inkscape:window-width="1366"
     inkscape:pageshadow="2"
     inkscape:pageopacity="0"
     guidetolerance="10"
     gridtolerance="10"
     objecttolerance="10"
     borderopacity="1"
     bordercolor="#666666"
     pagecolor="#ffffff" />
  <metadata
     id="metadata58">
Created by potrace 1.15, written by Peter Selinger 2001-2017
<rdf:RDF>
  <cc:Work
     rdf:about="">
    <dc:format>image/svg+xml</dc:format>
    <dc:type
       rdf:resource="http://purl.org/dc/dcmitype/StillImage" />
    <dc:title></dc:title>
  </cc:Work>
</rdf:RDF>
</metadata>
  <g
     id="g62"
     stroke="none"
     fill="#000000"
     transform="translate(0.000000,1280.000000) scale(0.100000,-0.100000)">
    <path
       id="path60"
       d="M3130 12789 c-1268 -111 -2354 -895 -2856 -2061 -328 -763 -361 -1656 -90 -2445 377 -1097 1288 -1932 2415 -2213 146 -37 372 -76 491 -85 140 -10 128 3 114 -122 -97 -823 340 -1627 1086 -1999 266 -132 520 -196 840 -211 l145 -6 113 -146 c62 -80 188 -237 280 -348 l167 -202 50 -6 c190 -26 347 -142 400 -295 39 -110 39 -273 1 -417 l-14 -51 47 -7 c243 -34 450 -220 517 -466 23 -83 23 -269 1 -359 -8 -36 -15 -66 -14 -66 1 -1 45 -16 97 -34 132 -43 213 -91 296 -174 124 -125 170 -252 161 -452 l-5 -121 242 -151 c320 -200 580 -354 583 -345 12 39 98 449 117 560 l25 142 -110 243 c-105 230 -455 1008 -796 1768 -191 425 -623 1377 -690 1521 l-50 105 73 97 c134 178 234 369 304 580 18 54 34 96 36 94 3 -2 -7 -41 -21 -87 -15 -45 -24 -84 -21 -87 3 -4 53 6 110 21 l105 27 173 -119 c95 -66 261 -177 367 -246 182 -118 197 -126 230 -119 20 4 74 7 121 7 186 -1 326 -87 404 -249 42 -86 65 -179 73 -291 5 -73 8 -84 22 -78 32 13 183 16 244 4 34 -6 98 -29 142 -49 215 -101 341 -287 376 -554 l12 -94 121 -6 c210 -10 343 -63 457 -185 69 -74 132 -196 150 -292 19 -106 14 -101 130 -131 412 -107 823 -209 826 -205 9 8 -18 420 -37 572 -17 136 -22 161 -43 183 -141 153 -741 829 -1763 1987 -243 274 -532 600 -643 724 -123 138 -200 231 -197 240 3 8 22 65 44 125 226 626 105 1343 -316 1884 -182 233 -441 439 -722 573 -158 75 -403 146 -593 173 -48 6 -49 7 -43 38 31 179 41 617 18 822 -70 615 -281 1173 -630 1660 -542 757 -1386 1271 -2297 1399 -249 35 -549 45 -775 25z m516 -559 c490 -39 946 -195 1354 -464 913 -602 1398 -1656 1264 -2746 -26 -210 -12 -187 -139 -220 -479 -122 -894 -417 -1168 -829 -62 -94 -197 -353 -197 -378 0 -5 -39 -20 -86 -31 -185 -47 -410 -148 -579 -259 -282 -186 -487 -412 -670 -737 l-27 -49 -122 7 c-579 33 -1110 227 -1581 580 -147 110 -420 381 -526 521 -336 443 -528 922 -584 1457 -136 1303 625 2523 1859 2982 366 137 804 197 1202 166z m2326 -4146 c7 -7 -67 -142 -139 -254 -46 -71 -182 -260 -187 -260 -16 0 -199 40 -203 44 -4 3 -1 38 6 77 34 185 171 334 354 384 52 14 159 20 169 9z m438 -466 c0 -72 -24 -167 -59 -236 -52 -101 -49 -99 -109 -62 -29 17 -52 34 -52 36 0 2 24 37 53 77 29 41 75 111 102 155 28 45 53 82 57 82 5 0 8 -24 8 -52z m-1507 -623 c26 -9 47 -20 47 -24 0 -8 -163 -103 -260 -151 -103 -52 -217 -99 -323 -136 -113 -38 -111 -41 -56 73 54 113 176 210 310 248 68 19 215 14 282 -10z m313 -562 c-4 -21 -22 -70 -41 -109 -58 -119 -189 -224 -316 -253 -105 -25 -266 -7 -341 37 -28 17 -37 32 -17 32 47 0 495 203 639 289 36 22 69 40 74 40 4 1 5 -16 2 -36z" />
  </g>
  <path
     transform="scale(0.75000001)"
     id="path70"
     d="m 1036.5431,1670.3512 -50.49313,-31.1406 -1.8262,-25.6426 c -1.45515,-20.4323 -3.71199,-28.4923 -11.107,-39.6669 -9.9258,-14.9989 -33.81237,-32.1339 -49.64196,-35.6107 l -9.67292,-2.1245 0.21005,-28.6092 c 0.17975,-24.4817 -1.09644,-31.2793 -8.84569,-47.1182 -10.25716,-20.9649 -28.9766,-36.5641 -50.92107,-42.4334 l -14.01278,-3.7478 1.82088,-24.0761 c 1.07803,-14.254 0.24069,-28.8644 -2.05271,-35.8131 -5.52014,-16.7263 -23.79635,-32.9475 -44.69309,-39.6677 -16.54235,-5.32 -20.44388,-8.8158 -49.35505,-44.2227 -17.26601,-21.1454 -33.46662,-41.315 -36.00131,-44.8213 -3.68754,-5.1011 -11.10481,-6.9232 -37.11589,-9.1179 -68.43622,-5.7742 -127.04359,-33.3844 -171.67902,-80.8786 -50.34997,-53.5748 -73.2603,-112.9599 -72.88174,-188.91434 l 0.19726,-39.55292 h -11.17425 c -17.98877,0 -64.93773,-9.86423 -99.43949,-20.89273 C 182.51779,843.03836 71.293647,733.86212 27.071912,600.86785 8.1694265,544.01973 3.4361935,515.06416 3.4108089,456.12097 3.3559845,328.8184 47.115485,223.73453 137.29329,134.61619 205.25238,67.455529 274.61379,30.452908 371.79788,9.5137181 413.84264,0.45479883 499.2373,1.3147148 545.8635,11.266542 707.89986,45.85134 836.88424,161.93182 888.39935,319.53424 c 17.34778,53.07277 22.77589,92.33408 21.40409,154.81477 l -1.17622,53.57321 23.56344,4.75743 c 96.87114,19.5582 174.09634,91.10628 201.50334,186.69015 14.8263,51.70792 14.3517,103.86894 -1.3608,149.53793 -3.6221,10.52791 -6.5857,21.75646 -6.5857,24.95237 0,4.88504 147.6963,174.414 308.1731,353.7276 l 41.0353,45.8519 2.067,21.4722 c 6.1791,64.1895 6.3923,70.2822 2.4598,70.2822 -8.0684,0 -113.067,-27.5151 -116.7903,-30.6052 -2.1259,-1.7643 -4.8223,-7.9931 -5.992,-13.8416 -6.6344,-33.1721 -32.3777,-55.3309 -70.4955,-60.6797 l -25.1166,-3.5245 -3.7701,-19.1629 c -4.6723,-23.749 -19.4359,-47.6046 -36.2954,-58.6475 -15.2003,-9.9562 -40.7326,-16.8695 -54.7205,-14.8165 -9.6468,1.4158 -10.1053,0.8889 -12.1119,-13.9179 -3.0793,-22.7234 -16.2748,-47.7779 -30.0607,-57.0767 -8.8061,-5.9399 -18.175,-8.4743 -36.0555,-9.7537 -23.8456,-1.7061 -24.7614,-2.1315 -70.8733,-32.9161 -43.50632,-29.0451 -47.45118,-30.9766 -57.42512,-28.1161 -15.40369,4.4177 -15.80706,4.1903 -13.95336,-7.8687 1.61362,-10.4973 1.52418,-10.5995 -2.21012,-2.5246 -22.19289,47.9892 -30.88646,64.6582 -41.03348,78.6776 l -11.87214,16.4028 6.06419,13.8931 c 3.3353,7.6411 14.70749,32.8279 25.27149,55.9706 10.564,23.1427 57.13805,126.1486 103.49784,228.902 l 84.2906,186.8245 -7.6813,40.3945 c -8.3257,43.7823 -9.6697,48.8423 -12.9488,48.7472 -1.1905,-0.035 -24.8864,-14.0761 -52.6576,-31.2034 z M 657.11141,895.23234 c 6.88332,-2.87532 16.50077,-9.0454 21.37211,-13.7113 9.69737,-9.28834 22.04886,-33.74912 18.7217,-37.07628 -1.14811,-1.14814 -13.8822,3.93934 -28.29792,11.30551 -14.41571,7.36617 -36.43524,17.637 -48.93228,22.82406 -12.49704,5.18709 -22.7219,10.67528 -22.7219,12.19603 0,3.80782 19.2167,9.01915 34.61174,9.38627 7.00225,0.16696 18.3632,-2.04895 25.24655,-4.92429 z M 465.5129,820.97298 c 34.30905,-56.67268 86.8767,-98.00993 149.72421,-117.73755 18.84019,-5.91385 20.09535,-7.02806 29.85122,-26.49928 33.16265,-66.18749 86.7258,-113.03331 155.55455,-136.04651 16.51657,-5.5224 31.31296,-12.33294 32.88081,-15.1346 5.18638,-9.2675 7.18819,-86.55432 3.04355,-117.50615 C 801.01317,142.53417 517.14983,-5.5248425 279.14661,117.30636 202.45841,156.88441 135.24757,230.48169 103.4333,309.71611 80.905775,365.82161 77.6824,383.7953 77.479118,454.43787 c -0.160669,55.83284 0.768502,67.53681 7.314104,92.12974 45.196608,169.81124 186.723268,285.09213 359.297508,292.6667 8.8269,0.38742 11.52458,-1.91217 21.42217,-18.26133 z M 622.66855,799.8597 c 18.83753,-8.99851 35.307,-18.07108 36.59881,-20.16132 6.12408,-9.9089 -30.9526,-13.74271 -51.18219,-5.29232 -18.39995,7.68609 -41.12791,31.91042 -41.12791,43.83572 0,4.84376 22.92491,-2.72037 55.71129,-18.38208 z m 227.62369,-81.20438 c 6.43269,-16.78865 8.14992,-38.62645 2.77625,-35.30531 -1.8604,1.14979 -9.56814,11.19923 -17.12834,22.33208 -13.0557,19.22535 -13.4351,20.47936 -7.5576,24.97894 9.7862,7.49193 15.67551,4.26481 21.90969,-12.00571 z m -83.47515,-36.84805 c 6.5911,-9.17432 16.72392,-25.07965 22.51743,-35.34516 l 10.53367,-18.66461 h -13.92028 c -30.94755,0 -60.77894,27.89552 -60.77894,56.83476 0,10.19668 2.1028,11.36216 24.08921,13.35122 3.17188,0.2868 10.74093,-6.6861 17.55891,-16.17621 z"
     style="fill:#800000;stroke-width:3.36621" />
</svg>
